<svg width="32" height="32" viewBox="0 0 32 32" fill="none" xmlns="http://www.w3.org/2000/svg">
<path d="M20 28V21.3333C20 20.9797 19.8595 20.6406 19.6095 20.3905C19.3594 20.1405 19.0203 20 18.6667 20H13.3333C12.9797 20 12.6406 20.1405 12.3905 20.3905C12.1405 20.6406 12 20.9797 12 21.3333V28" stroke="#0A0A0A" stroke-width="2.66667" stroke-linecap="round" stroke-linejoin="round"/>
<path d="M23.6987 13.7467C23.4207 13.4806 23.0508 13.3321 22.666 13.3321C22.2812 13.3321 21.9113 13.4806 21.6333 13.7467C21.0133 14.338 20.1894 14.6679 19.3327 14.6679C18.4759 14.6679 17.652 14.338 17.032 13.7467C16.7541 13.481 16.3845 13.3327 16 13.3327C15.6155 13.3327 15.2459 13.481 14.968 13.7467C14.3479 14.3384 13.5238 14.6686 12.6667 14.6686C11.8096 14.6686 10.9854 14.3384 10.3653 13.7467C10.0874 13.4806 9.71744 13.3321 9.33266 13.3321C8.94788 13.3321 8.57794 13.4806 8.29999 13.7467C7.70112 14.3182 6.91102 14.6464 6.08349 14.6674C5.25596 14.6884 4.45021 14.4008 3.82307 13.8605C3.19592 13.3202 2.79225 12.5659 2.69064 11.7443C2.58902 10.9228 2.79673 10.0928 3.27333 9.416L7.12533 3.83733C7.36973 3.47668 7.69878 3.1814 8.0837 2.97733C8.46861 2.77325 8.89766 2.66659 9.33333 2.66667H22.6667C23.1011 2.6665 23.5289 2.77245 23.913 2.97532C24.2971 3.17818 24.6259 3.47181 24.8707 3.83067L28.7307 9.42C29.2074 10.0974 29.4148 10.928 29.3126 11.7499C29.2103 12.5719 28.8057 13.3263 28.1775 13.8663C27.5494 14.4062 26.7428 14.6929 25.9148 14.6705C25.0868 14.6482 24.2967 14.3184 23.6987 13.7453" stroke="#0A0A0A" stroke-width="2.66667" stroke-linecap="round" stroke-linejoin="round"/>
<path d="M5.33333 14.6V25.3333C5.33333 26.0406 5.61428 26.7189 6.11438 27.219C6.61447 27.7191 7.29275 28 7.99999 28H24C24.7072 28 25.3855 27.7191 25.8856 27.219C26.3857 26.7189 26.6667 26.0406 26.6667 25.3333V14.6" stroke="#0A0A0A" stroke-width="2.66667" stroke-linecap="round" stroke-linejoin="round"/>
</svg>
