<svg width="16" height="16" viewBox="0 0 16 16" fill="none" xmlns="http://www.w3.org/2000/svg">
<path d="M6.66675 7.33333V11.3333" stroke="#FB2C36" stroke-width="1.33333" stroke-linecap="round" stroke-linejoin="round"/>
<path d="M9.33325 7.33333V11.3333" stroke="#FB2C36" stroke-width="1.33333" stroke-linecap="round" stroke-linejoin="round"/>
<path d="M12.6666 4V13.3333C12.6666 13.687 12.5261 14.0261 12.2761 14.2761C12.026 14.5262 11.6869 14.6667 11.3333 14.6667H4.66659C4.31296 14.6667 3.97382 14.5262 3.72378 14.2761C3.47373 14.0261 3.33325 13.687 3.33325 13.3333V4" stroke="#FB2C36" stroke-width="1.33333" stroke-linecap="round" stroke-linejoin="round"/>
<path d="M2 4H14" stroke="#FB2C36" stroke-width="1.33333" stroke-linecap="round" stroke-linejoin="round"/>
<path d="M5.33325 3.99999V2.66666C5.33325 2.31304 5.47373 1.9739 5.72378 1.72385C5.97383 1.4738 6.31296 1.33333 6.66659 1.33333H9.33325C9.68687 1.33333 10.026 1.4738 10.2761 1.72385C10.5261 1.9739 10.6666 2.31304 10.6666 2.66666V3.99999" stroke="#FB2C36" stroke-width="1.33333" stroke-linecap="round" stroke-linejoin="round"/>
</svg>
